<svg xmlns="http://www.w3.org/2000/svg" width="468" height="419" viewBox="470 175 468 419" role="img" aria-label="Joana Parente logo">
 <g fill="#1E1713">
  <path d="M590.50 579.25 c25.15 -3.20 47.70 -15.60 62.75 -34.50 9.90 -12.50 16.45 -28.05 19.70 -47.25 0.55 -3.15 1.15 -6.55 1.35 -7.50 0.20 -0.95 0.50 -45.05 0.70 -98 0.30 -86 0.40 -96.90 1.15 -102.45 2.85 -20.90 9.75 -38.25 21.10 -52.85 4.80 -6.15 14.55 -15.20 20.95 -19.40 14.65 -9.70 32.20 -15.65 51.25 -17.35 10.15 -0.90 24.25 -0.35 31.85 1.25 15 3.15 28.50 10.65 37.60 20.80 8.70 9.80 13.75 18.65 18.20 32 6.90 20.50 8.85 42.80 5.85 66.50 -3.30 26.15 -13.05 47.80 -27.65 61.15 -1.10 1.05 -4.65 3.65 -7.80 5.75 -8.15 5.50 -17.25 8.80 -28 10.10 -2.65 0.30 -22.85 0.50 -53.85 0.50 l-49.65 0 0 5 0 5 9.15 0.10 9.10 0.15 0.15 46.75 c0.20 69.85 -0.55 82.40 -5.95 97.25 -3.30 9.10 -10 15.30 -20.20 18.85 -2.35 0.80 -5.85 1.60 -7.75 1.75 l-3.50 0.30 0 2.15 0 2.20 66.30 0 66.25 0 -0.15 -2.10 -0.15 -2.15 -3 -0.30 c-3.75 -0.40 -6.60 -1.15 -10.20 -2.80 -7.75 -3.55 -13 -8.35 -16.40 -14.95 -2.40 -4.70 -3.30 -7.35 -4.65 -13.90 -2.75 -13.05 -2.65 -11.20 -2.85 -73.95 l-0.20 -58.45 10.15 0.35 c15.05 0.50 33.85 -0.65 44.90 -2.80 19.35 -3.75 31.80 -8.05 44.25 -15.20 19.50 -11.20 34.15 -26.80 43.30 -46 8.40 -17.65 11.70 -38.95 9 -58.20 -4.80 -34 -21.20 -58.30 -52.05 -77.05 -17.05 -10.35 -37.10 -16.70 -62.50 -19.85 -11.10 -1.35 -32.95 -1.25 -44 0.25 -21.35 2.95 -36.90 7.60 -55.25 16.60 -10.20 5 -10.90 5.40 -20.50 11.80 -12.10 8.05 -26.70 21.45 -36.25 33.45 -15.60 19.50 -27.75 46.50 -32.45 72 -2.85 15.50 -2.70 10.15 -3.10 100.75 -0.20 46.05 -0.50 84.75 -0.65 86 -0.20 1.25 -0.55 4.50 -0.85 7.25 -1.65 16.05 -5.45 28.40 -11.35 37.10 -2.50 3.65 -8.10 8.95 -11.40 10.70 -5.65 3 -12.35 4.45 -20.70 4.45 -9.25 0 -17.55 -2.05 -23.10 -5.60 -11.85 -7.65 -19.30 -21 -22.85 -40.90 -2.15 -11.75 -2.60 -30.45 -1 -41.25 1.60 -11.40 4.85 -22.20 9.45 -31.50 8.10 -16.35 20.25 -28.55 36.25 -36.30 6.75 -3.25 17.70 -7.05 23.15 -8 l3.60 -0.65 0 -3.95 0 -3.95 -3.10 0.35 c-15.75 1.70 -31.60 5.25 -43.90 9.85 -16.75 6.30 -29.50 14.35 -40.75 25.65 -18.25 18.40 -27.45 40.60 -26.60 64 0.40 10.70 2 18.75 5.40 27.50 12.10 31.05 40.65 50.80 78.45 54.25 5.80 0.50 15.30 0.20 23 -0.75z m181.40 -276.45 c0.05 -44.55 -0.05 -81.15 -0.30 -81.40 -0.45 -0.45 -10.50 1.15 -15.95 2.60 -9 2.35 -17.85 6.30 -25.40 11.40 -4.90 3.30 -13.55 10.70 -14.90 12.75 -0.80 1.20 -0.85 6.20 -0.85 68.60 l0 67.25 28.65 -0.10 28.60 -0.15 0.15 -80.95z m-148.55 -44.05 c11.60 -20.80 30.80 -41.65 50.35 -54.70 6.55 -4.35 10.30 -6.60 16.50 -9.85 l5.05 -2.70 -57.40 0 -57.40 0 0.15 1.65 0.15 1.60 3.50 0.30 c10.65 0.95 19.90 6.05 24.85 13.65 2 3.10 4.40 9.90 5.70 16 1.85 8.80 3.20 24.25 3.20 37 l0.05 7.05 1.25 -2.50 c0.70 -1.35 2.55 -4.75 4.05 -7.50z"/>
  <path d="M566 581.50 c-33.80 -3.10 -60.15 -19.05 -74.10 -44.85 -6.45 -11.90 -9.30 -23.05 -9.75 -38.40 -0.50 -16.55 2.30 -28.70 9.90 -43.20 7.45 -14.25 21.15 -28.55 36.05 -37.75 7.85 -4.80 21.05 -10.50 31.15 -13.45 9.80 -2.90 24.75 -5.75 34.50 -6.60 1.95 -0.15 4 -0.40 4.65 -0.55 1.10 -0.20 1.10 -0.15 1.10 5.45 l0 5.65 -3.60 0.65 c-5.45 0.95 -16.40 4.75 -23.15 8 -25.15 12.20 -41.25 36.10 -45.70 67.80 -2.05 14.45 -0.70 33.95 3.30 48.75 1.50 5.65 5.80 14.95 8.85 19.20 4.90 6.90 12 12.30 18.90 14.45 9.65 3.05 19.10 3.15 27.90 0.25 4.80 -1.55 7.75 -3.30 11.60 -6.85 9.30 -8.60 14.70 -22.50 16.85 -43.30 0.30 -2.75 0.65 -6 0.85 -7.25 0.15 -1.25 0.45 -39.95 0.65 -86 0.40 -90.60 0.25 -85.25 3.10 -100.75 2.95 -16.20 9.50 -34.55 17.60 -49.50 13.40 -24.70 31.45 -43.40 59.10 -61.25 4.50 -2.90 22.35 -11.35 28.85 -13.70 13.35 -4.80 24 -7.35 38.90 -9.40 11.10 -1.50 35.75 -1.65 47 -0.25 25.40 3.15 45.45 9.50 62.50 19.85 30.85 18.75 47.25 43.05 52.05 77.05 1.50 10.80 1.20 24.90 -0.80 35.45 -4.45 23.75 -16.10 44.10 -33.95 59.35 -17.25 14.65 -34.15 22.25 -61.80 27.60 -10.40 2 -29 3.20 -45.15 2.95 l-9.90 -0.15 0.20 56.75 c0.20 60.90 0.15 59.30 2.85 72.30 1.35 6.55 2.25 9.20 4.65 13.90 4.95 9.55 15.50 16.60 26.60 17.75 l3 0.30 0.15 3.65 0.15 3.60 -67.90 -0.10 -67.90 -0.15 0 -3.50 0 -3.50 3.70 -0.35 c2 -0.20 5.55 -1.05 7.85 -1.85 10.15 -3.50 16.85 -9.70 20.15 -18.80 5.35 -14.75 6.15 -27.60 5.95 -95.75 l-0.15 -45.25 -9.15 -0.25 -9.10 -0.25 -0.10 -6.25 -0.10 -6.25 52.45 -0.30 c56.55 -0.30 53.90 -0.15 63.25 -2.95 8.20 -2.45 17.65 -7.75 23.80 -13.35 14.05 -12.80 24.05 -34.35 27.45 -59.15 3.15 -22.90 1.25 -44.90 -5.65 -65.50 -4.45 -13.35 -9.50 -22.20 -18.20 -32 -6.70 -7.50 -16.65 -14.05 -27.35 -17.95 -21.80 -8.05 -55.55 -5.05 -79.80 7.05 -14.60 7.30 -28.15 19.50 -36.95 33.30 -7.90 12.35 -13.30 28.05 -15.65 45.15 -0.75 5.55 -0.85 16.45 -1.15 102.45 -0.20 52.95 -0.50 97.05 -0.70 98 -0.20 0.95 -0.80 4.35 -1.35 7.50 -3.25 19.20 -9.80 34.75 -19.70 47.25 -15.05 18.90 -37.30 31.15 -62.65 34.50 -7.15 0.95 -20.05 1.30 -26.10 0.75z"/>
  <path d="M713 316.75 c0 -63.85 0.05 -68.90 0.85 -70.10 1.35 -2.05 10 -9.45 14.90 -12.75 10.75 -7.20 22.60 -11.60 37.25 -13.75 3.20 -0.45 6.20 -0.70 6.65 -0.50 0.80 0.30 0.85 5.70 0.75 82.95 l-0.15 82.65 -30.10 0.15 -30.15 0.10 0 -68.75z"/>
  <path d="M616.50 266.45 c0 -27.20 -3.20 -47.45 -8.90 -56.25 -4.95 -7.60 -14.20 -12.70 -24.85 -13.65 l-3.50 -0.30 -0.15 -3.10 -0.15 -3.15 62.10 0 c34.15 0 62 0.15 61.80 0.30 -0.15 0.15 -2.50 1.30 -5.20 2.50 -25.70 11.55 -50.15 32.75 -67 57.95 -3.85 5.80 -9.45 15.90 -11.65 21 -0.95 2.20 -1.90 4.20 -2.10 4.50 -0.20 0.25 -0.40 -4.15 -0.40 -9.80z"/>
 </g>
</svg>
